<svg version="1.1" viewBox="0.0 0.0 600.0 371.0" fill="none" stroke="none" stroke-linecap="square" stroke-miterlimit="10" width="600" height="371" xmlns:xlink="http://www.w3.org/1999/xlink" xmlns="http://www.w3.org/2000/svg"><path fill="#ffffff" d="M0 0L600.0 0L600.0 371.0L0 371.0L0 0Z" fill-rule="nonzero"/><path stroke="#cccccc" stroke-width="1.0" stroke-linecap="butt" d="M77.5 61.5L77.5 300.5" fill-rule="nonzero"/><path stroke="#cccccc" stroke-width="1.0" stroke-linecap="butt" d="M203.5 61.5L203.5 300.5" fill-rule="nonzero"/><path stroke="#cccccc" stroke-width="1.0" stroke-linecap="butt" d="M329.5 61.5L329.5 300.5" fill-rule="nonzero"/><path stroke="#cccccc" stroke-width="1.0" stroke-linecap="butt" d="M455.5 61.5L455.5 300.5" fill-rule="nonzero"/><path stroke="#cccccc" stroke-width="1.0" stroke-linecap="butt" d="M581.5 61.5L581.5 300.5" fill-rule="nonzero"/><path stroke="#333333" stroke-width="1.0" stroke-linecap="butt" d="M77.5 300.5L581.5 300.5" fill-rule="nonzero"/><path stroke="#cccccc" stroke-width="1.0" stroke-linecap="butt" d="M77.5 240.5L581.5 240.5" fill-rule="nonzero"/><path stroke="#cccccc" stroke-width="1.0" stroke-linecap="butt" d="M77.5 181.5L581.5 181.5" fill-rule="nonzero"/><path stroke="#cccccc" stroke-width="1.0" stroke-linecap="butt" d="M77.5 121.5L581.5 121.5" fill-rule="nonzero"/><path stroke="#cccccc" stroke-width="1.0" stroke-linecap="butt" d="M77.5 61.5L581.5 61.5" fill-rule="nonzero"/><clipPath id="id_0"><path d="M77.55 61.916668L581.45 61.916668L581.45 300.45L77.55 300.45L77.55 61.916668Z" clip-rule="nonzero"/></clipPath><path stroke="#4285f4" stroke-width="2.0" stroke-linecap="butt" clip-path="url(#id_0)" d="M77.55 207.12192L137.65535 189.08073L165.60275 167.07312L191.31676 144.75992L203.525 133.20178L263.63034 100.50388L291.57776 97.298935L317.29175 97.298935L329.5 97.298935L389.60535 97.298935L417.55273 97.298935L443.26675 97.298935L455.475 97.298935L531.3195 108.85707L553.5026 115.773575L569.24176 128.26501L581.45 136.40672" fill-rule="nonzero"/><path fill="#000000" fill-opacity="0.0" clip-path="url(#id_0)" d="M80.55 207.12192C80.55 208.77878 79.206856 210.12192 77.55 210.12192C75.89314 210.12192 74.55 208.77878 74.55 207.12192C74.55 205.46506 75.89314 204.12192 77.55 204.12192C79.206856 204.12192 80.55 205.46506 80.55 207.12192Z" fill-rule="nonzero"/><path fill="#000000" fill-opacity="0.0" clip-path="url(#id_0)" d="M140.65535 189.08073C140.65535 190.73758 139.31221 192.08073 137.65535 192.08073C135.99849 192.08073 134.65535 190.73758 134.65535 189.08073C134.65535 187.42387 135.99849 186.08073 137.65535 186.08073C139.31221 186.08073 140.65535 187.42387 140.65535 189.08073Z" fill-rule="nonzero"/><path fill="#000000" fill-opacity="0.0" clip-path="url(#id_0)" d="M168.60275 167.07312C168.60275 168.72997 167.2596 170.07312 165.60275 170.07312C163.94589 170.07312 162.60275 168.72997 162.60275 167.07312C162.60275 165.41626 163.94589 164.07312 165.60275 164.07312C167.2596 164.07312 168.60275 165.41626 168.60275 167.07312Z" fill-rule="nonzero"/><path fill="#000000" fill-opacity="0.0" clip-path="url(#id_0)" d="M194.31676 144.75992C194.31676 146.41676 192.97362 147.75992 191.31676 147.75992C189.65991 147.75992 188.31676 146.41676 188.31676 144.75992C188.31676 143.10306 189.65991 141.75992 191.31676 141.75992C192.97362 141.75992 194.31676 143.10306 194.31676 144.75992Z" fill-rule="nonzero"/><path fill="#000000" fill-opacity="0.0" clip-path="url(#id_0)" d="M206.525 133.20178C206.525 134.85863 205.18185 136.20178 203.525 136.20178C201.86815 136.20178 200.525 134.85863 200.525 133.20178C200.525 131.54492 201.86815 130.20178 203.525 130.20178C205.18185 130.20178 206.525 131.54492 206.525 133.20178Z" fill-rule="nonzero"/><path fill="#000000" fill-opacity="0.0" clip-path="url(#id_0)" d="M266.63034 100.50388C266.63034 102.16074 265.2872 103.50388 263.63034 103.50388C261.9735 103.50388 260.63034 102.16074 260.63034 100.50388C260.63034 98.84703 261.9735 97.50388 263.63034 97.50388C265.2872 97.50388 266.63034 98.84703 266.63034 100.50388Z" fill-rule="nonzero"/><path fill="#000000" fill-opacity="0.0" clip-path="url(#id_0)" d="M294.57776 97.298935C294.57776 98.95579 293.2346 100.298935 291.57776 100.298935C289.9209 100.298935 288.57776 98.95579 288.57776 97.298935C288.57776 95.64208 289.9209 94.298935 291.57776 94.298935C293.2346 94.298935 294.57776 95.64208 294.57776 97.298935Z" fill-rule="nonzero"/><path fill="#000000" fill-opacity="0.0" clip-path="url(#id_0)" d="M320.29175 97.298935C320.29175 98.95579 318.9486 100.298935 317.29175 100.298935C315.63492 100.298935 314.29175 98.95579 314.29175 97.298935C314.29175 95.64208 315.63492 94.298935 317.29175 94.298935C318.9486 94.298935 320.29175 95.64208 320.29175 97.298935Z" fill-rule="nonzero"/><path fill="#000000" fill-opacity="0.0" clip-path="url(#id_0)" d="M332.5 97.298935C332.5 98.95579 331.15686 100.298935 329.5 100.298935C327.84314 100.298935 326.5 98.95579 326.5 97.298935C326.5 95.64208 327.84314 94.298935 329.5 94.298935C331.15686 94.298935 332.5 95.64208 332.5 97.298935Z" fill-rule="nonzero"/><path fill="#000000" fill-opacity="0.0" clip-path="url(#id_0)" d="M392.60535 97.298935C392.60535 98.95579 391.2622 100.298935 389.60535 100.298935C387.9485 100.298935 386.60535 98.95579 386.60535 97.298935C386.60535 95.64208 387.9485 94.298935 389.60535 94.298935C391.2622 94.298935 392.60535 95.64208 392.60535 97.298935Z" fill-rule="nonzero"/><path fill="#000000" fill-opacity="0.0" clip-path="url(#id_0)" d="M420.55273 97.298935C420.55273 98.95579 419.2096 100.298935 417.55273 100.298935C415.8959 100.298935 414.55273 98.95579 414.55273 97.298935C414.55273 95.64208 415.8959 94.298935 417.55273 94.298935C419.2096 94.298935 420.55273 95.64208 420.55273 97.298935Z" fill-rule="nonzero"/><path fill="#000000" fill-opacity="0.0" clip-path="url(#id_0)" d="M446.26675 97.298935C446.26675 98.95579 444.9236 100.298935 443.26675 100.298935C441.6099 100.298935 440.26675 98.95579 440.26675 97.298935C440.26675 95.64208 441.6099 94.298935 443.26675 94.298935C444.9236 94.298935 446.26675 95.64208 446.26675 97.298935Z" fill-rule="nonzero"/><path fill="#000000" fill-opacity="0.0" clip-path="url(#id_0)" d="M458.475 97.298935C458.475 98.95579 457.13187 100.298935 455.475 100.298935C453.81815 100.298935 452.475 98.95579 452.475 97.298935C452.475 95.64208 453.81815 94.298935 455.475 94.298935C457.13187 94.298935 458.475 95.64208 458.475 97.298935Z" fill-rule="nonzero"/><path fill="#000000" fill-opacity="0.0" clip-path="url(#id_0)" d="M534.3195 108.85707C534.3195 110.51392 532.9764 111.85707 531.3195 111.85707C529.66266 111.85707 528.3195 110.51392 528.3195 108.85707C528.3195 107.20022 529.66266 105.85707 531.3195 105.85707C532.9764 105.85707 534.3195 107.20022 534.3195 108.85707Z" fill-rule="nonzero"/><path fill="#000000" fill-opacity="0.0" clip-path="url(#id_0)" d="M556.5026 115.773575C556.5026 117.43043 555.1595 118.773575 553.5026 118.773575C551.84576 118.773575 550.5026 117.43043 550.5026 115.773575C550.5026 114.11672 551.84576 112.773575 553.5026 112.773575C555.1595 112.773575 556.5026 114.11672 556.5026 115.773575Z" fill-rule="nonzero"/><path fill="#000000" fill-opacity="0.0" clip-path="url(#id_0)" d="M572.24176 128.26501C572.24176 129.92186 570.8986 131.26501 569.24176 131.26501C567.5849 131.26501 566.24176 129.92186 566.24176 128.26501C566.24176 126.608154 567.5849 125.265015 569.24176 125.265015C570.8986 125.265015 572.24176 126.608154 572.24176 128.26501Z" fill-rule="nonzero"/><path fill="#000000" fill-opacity="0.0" clip-path="url(#id_0)" d="M584.45 136.40672C584.45 138.06358 583.1069 139.40672 581.45 139.40672C579.79315 139.40672 578.45 138.06358 578.45 136.40672C578.45 134.74988 579.79315 133.40672 581.45 133.40672C583.1069 133.40672 584.45 134.74988 584.45 136.40672Z" fill-rule="nonzero"/><path fill="#000000" d="M289.48438 349.45L289.48438 340.85626L295.28125 340.85626L295.28125 341.8719L290.625 341.8719L290.625 344.52814L294.65625 344.52814L294.65625 345.54376L290.625 345.54376L290.625 349.45L289.48438 349.45ZM296.28125 349.45L296.28125 343.23126L297.23438 343.23126L297.23438 344.16876Q297.59375 343.5125 297.89062 343.3094Q298.20312 343.09064 298.57812 343.09064Q299.10938 343.09064 299.65625 343.41876L299.29688 344.40314Q298.90625 344.16876 298.53125 344.16876Q298.17188 344.16876 297.89062 344.3875Q297.625 344.59064 297.51562 344.96564Q297.32812 345.52814 297.32812 346.1844L297.32812 349.45L296.28125 349.45ZM304.54688 347.45L305.64062 347.575Q305.39062 348.52814 304.6875 349.0594Q303.98438 349.59064 302.90625 349.59064Q301.54688 349.59064 300.73438 348.7469Q299.9375 347.90314 299.9375 346.3875Q299.9375 344.825 300.75 343.96564Q301.5625 343.09064 302.84375 343.09064Q304.09375 343.09064 304.875 343.9344Q305.67188 344.77814 305.67188 346.325Q305.67188 346.41876 305.67188 346.60626L301.03125 346.60626Q301.09375 347.6375 301.60938 348.1844Q302.125 348.71564 302.90625 348.71564Q303.48438 348.71564 303.89062 348.41876Q304.3125 348.10626 304.54688 347.45ZM301.09375 345.7469L304.5625 345.7469Q304.5 344.95 304.17188 344.5594Q303.65625 343.95 302.85938 343.95Q302.125 343.95 301.625 344.4344Q301.14062 344.91876 301.09375 345.7469ZM311.26562 351.84064L311.26562 348.79376Q311.01562 349.1375 310.5625 349.3719Q310.125 349.59064 309.625 349.59064Q308.51562 349.59064 307.71875 348.71564Q306.92188 347.825 306.92188 346.27814Q306.92188 345.34064 307.25 344.60626Q307.57812 343.85626 308.1875 343.48126Q308.8125 343.09064 309.54688 343.09064Q310.70312 343.09064 311.35938 344.0594L311.35938 343.23126L312.3125 343.23126L312.3125 351.84064L311.26562 351.84064ZM308.0 346.325Q308.0 347.52814 308.5 348.1219Q309.01562 348.71564 309.71875 348.71564Q310.39062 348.71564 310.875 348.15314Q311.35938 347.575 311.35938 346.41876Q311.35938 345.16876 310.84375 344.54376Q310.34375 343.91876 309.64062 343.91876Q308.96875 343.91876 308.48438 344.5125Q308.0 345.09064 308.0 346.325ZM318.375 349.45L318.375 348.52814Q317.64062 349.59064 316.39062 349.59064Q315.84375 349.59064 315.35938 349.3875Q314.89062 349.16876 314.65625 348.85626Q314.42188 348.52814 314.32812 348.0594Q314.26562 347.7625 314.26562 347.075L314.26562 343.23126L315.32812 343.23126L315.32812 346.6844Q315.32812 347.4969 315.39062 347.79376Q315.48438 348.2 315.79688 348.45Q316.125 348.6844 316.60938 348.6844Q317.07812 348.6844 317.48438 348.45Q317.90625 348.2 318.07812 347.77814Q318.26562 347.35626 318.26562 346.5594L318.26562 343.23126L319.3125 343.23126L319.3125 349.45L318.375 349.45ZM325.54688 347.45L326.64062 347.575Q326.39062 348.52814 325.6875 349.0594Q324.98438 349.59064 323.90625 349.59064Q322.54688 349.59064 321.73438 348.7469Q320.9375 347.90314 320.9375 346.3875Q320.9375 344.825 321.75 343.96564Q322.5625 343.09064 323.84375 343.09064Q325.09375 343.09064 325.875 343.9344Q326.67188 344.77814 326.67188 346.325Q326.67188 346.41876 326.67188 346.60626L322.03125 346.60626Q322.09375 347.6375 322.60938 348.1844Q323.125 348.71564 323.90625 348.71564Q324.48438 348.71564 324.89062 348.41876Q325.3125 348.10626 325.54688 347.45ZM322.09375 345.7469L325.5625 345.7469Q325.5 344.95 325.17188 344.5594Q324.65625 343.95 323.85938 343.95Q323.125 343.95 322.625 344.4344Q322.14062 344.91876 322.09375 345.7469ZM328.29688 349.45L328.29688 343.23126L329.23438 343.23126L329.23438 344.10626Q329.92188 343.09064 331.21875 343.09064Q331.78125 343.09064 332.25 343.29376Q332.73438 343.4969 332.96875 343.825Q333.20312 344.15314 333.29688 344.59064Q333.34375 344.8875 333.34375 345.6219L333.34375 349.45L332.29688 349.45L332.29688 345.66876Q332.29688 345.0125 332.17188 344.7Q332.04688 344.3875 331.73438 344.2Q331.42188 343.9969 331.0 343.9969Q330.32812 343.9969 329.82812 344.4344Q329.34375 344.85626 329.34375 346.04376L329.34375 349.45L328.29688 349.45ZM339.35938 347.16876L340.39062 347.3094Q340.21875 348.3719 339.51562 348.98126Q338.8125 349.59064 337.79688 349.59064Q336.51562 349.59064 335.73438 348.7625Q334.96875 347.91876 334.96875 346.35626Q334.96875 345.35626 335.29688 344.60626Q335.64062 343.84064 336.3125 343.46564Q337.0 343.09064 337.8125 343.09064Q338.8125 343.09064 339.45312 343.60626Q340.10938 344.10626 340.29688 345.0594L339.26562 345.21564Q339.125 344.59064 338.75 344.27814Q338.375 343.95 337.84375 343.95Q337.04688 343.95 336.54688 344.52814Q336.04688 345.09064 336.04688 346.325Q336.04688 347.59064 336.53125 348.15314Q337.01562 348.71564 337.78125 348.71564Q338.40625 348.71564 338.8125 348.34064Q339.23438 347.96564 339.35938 347.16876ZM341.25 351.84064L341.125 350.85626Q341.46875 350.95 341.73438 350.95Q342.07812 350.95 342.28125 350.825Q342.5 350.71564 342.64062 350.5125Q342.73438 350.34064 342.96875 349.71564Q342.98438 349.6375 343.0625 349.46564L340.6875 343.23126L341.82812 343.23126L343.125 346.825Q343.375 347.5125 343.57812 348.27814Q343.76562 347.54376 344.01562 346.85626L345.34375 343.23126L346.39062 343.23126L344.03125 349.5594Q343.64062 350.575 343.4375 350.96564Q343.15625 351.4969 342.78125 351.73126Q342.42188 351.98126 341.92188 351.98126Q341.625 351.98126 341.25 351.84064ZM351.3125 351.98126Q350.4375 350.8719 349.82812 349.40314Q349.23438 347.91876 349.23438 346.34064Q349.23438 344.95 349.67188 343.66876Q350.20312 342.1844 351.3125 340.71564L352.0625 340.71564Q351.35938 341.9344 351.125 342.45Q350.76562 343.2625 350.5625 344.1375Q350.3125 345.23126 350.3125 346.34064Q350.3125 349.16876 352.0625 351.98126L351.3125 351.98126ZM353.46875 349.45L353.46875 340.85626L354.59375 340.85626L354.59375 344.3875L359.0625 344.3875L359.0625 340.85626L360.20312 340.85626L360.20312 349.45L359.0625 349.45L359.0625 345.40314L354.59375 345.40314L354.59375 349.45L353.46875 349.45ZM361.73438 349.45L361.73438 348.59064L365.70312 344.04376Q365.01562 344.075 364.5 344.075L361.96875 344.075L361.96875 343.23126L367.0625 343.23126L367.0625 343.91876L363.6875 347.8719L363.03125 348.59064Q363.75 348.54376 364.35938 348.54376L367.25 348.54376L367.25 349.45L361.73438 349.45ZM367.98438 351.98126L367.23438 351.98126Q368.98438 349.16876 368.98438 346.34064Q368.98438 345.2469 368.73438 344.15314Q368.53125 343.27814 368.17188 342.46564Q367.9375 341.95 367.23438 340.71564L367.98438 340.71564Q369.07812 342.1844 369.60938 343.66876Q370.0625 344.95 370.0625 346.34064Q370.0625 347.91876 369.45312 349.40314Q368.84375 350.8719 367.98438 351.98126Z" fill-rule="nonzero"/><path fill="#000000" d="M29.550013 204.85521L28.768763 204.85521Q29.690638 205.44896 29.690638 206.58958Q29.690638 207.33958 29.284388 207.96458Q28.862513 208.58958 28.128138 208.93333Q27.393763 209.27708 26.440638 209.27708Q25.518763 209.27708 24.753138 208.96458Q23.987513 208.65208 23.596888 208.02708Q23.190638 207.40208 23.190638 206.63646Q23.190638 206.07396 23.425013 205.63646Q23.659388 205.19896 24.034388 204.91771L20.956263 204.91771L20.956263 203.87083L29.550013 203.87083L29.550013 204.85521ZM26.440638 208.18333Q27.643763 208.18333 28.237513 207.68333Q28.815638 207.18333 28.815638 206.49583Q28.815638 205.80833 28.253138 205.32396Q27.690638 204.83958 26.534388 204.83958Q25.253138 204.83958 24.659388 205.33958Q24.065638 205.82396 24.065638 206.54271Q24.065638 207.24583 24.643763 207.71458Q25.206263 208.18333 26.440638 208.18333ZM29.550013 201.80833L20.956263 201.80833L20.956263 198.57396Q20.956263 197.58958 21.221888 196.99583Q21.487513 196.40208 22.034388 196.07396Q22.565638 195.73021 23.159388 195.73021Q23.706263 195.73021 24.190638 196.02708Q24.675013 196.32396 24.971888 196.93333Q25.206263 196.15208 25.768763 195.74583Q26.315638 195.32396 27.065638 195.32396Q27.659388 195.32396 28.190638 195.57396Q28.706263 195.82396 28.987513 196.19896Q29.268763 196.57396 29.409388 197.15208Q29.550013 197.71458 29.550013 198.52708L29.550013 201.80833ZM24.565638 200.66771L24.565638 198.80833Q24.565638 198.05833 24.471888 197.73021Q24.346888 197.29271 24.050013 197.07396Q23.737513 196.85521 23.284388 196.85521Q22.862513 196.85521 22.534388 197.05833Q22.206263 197.26146 22.096888 197.65208Q21.971888 198.02708 21.971888 198.94896L21.971888 200.66771L24.565638 200.66771ZM28.534388 200.66771L28.534388 198.52708Q28.534388 197.98021 28.487513 197.76146Q28.425013 197.35521 28.268763 197.10521Q28.096888 196.83958 27.784388 196.66771Q27.471888 196.49583 27.065638 196.49583Q26.581263 196.49583 26.221888 196.74583Q25.862513 196.98021 25.721888 197.41771Q25.581263 197.85521 25.581263 198.68333L25.581263 200.66771L28.534388 200.66771ZM26.175013 186.73021L25.175013 186.73021L25.159388 183.10521L28.346888 183.10521Q29.018763 183.93333 29.362513 184.82396Q29.690638 185.71458 29.690638 186.65208Q29.690638 187.91771 29.159388 188.96458Q28.612513 189.99583 27.596888 190.52708Q26.565638 191.04271 25.300013 191.04271Q24.034388 191.04271 22.956263 190.52708Q21.862513 189.99583 21.346888 189.01146Q20.815638 188.02708 20.815638 186.74583Q20.815638 185.80833 21.112513 185.05833Q21.409388 184.30833 21.956263 183.88646Q22.487513 183.44896 23.362513 183.23021L23.643763 184.24583Q22.987513 184.44896 22.612513 184.74583Q22.237513 185.02708 22.018763 185.55833Q21.784388 186.08958 21.784388 186.73021Q21.784388 187.51146 22.018763 188.08958Q22.253138 188.65208 22.643763 189.01146Q23.034388 189.35521 23.503138 189.54271Q24.300013 189.87083 25.221888 189.87083Q26.378138 189.87083 27.159388 189.48021Q27.925013 189.07396 28.300013 188.32396Q28.675013 187.57396 28.675013 186.71458Q28.675013 185.98021 28.393763 185.27708Q28.096888 184.57396 27.784388 184.21458L26.175013 184.21458L26.175013 186.73021ZM28.784388 177.82396Q29.284388 178.41771 29.487513 178.96458Q29.690638 179.49583 29.690638 180.12083Q29.690638 181.15208 29.190638 181.69896Q28.690638 182.24583 27.909388 182.24583Q27.456263 182.24583 27.081263 182.04271Q26.690638 181.83958 26.471888 181.49583Q26.237513 181.15208 26.128138 180.73021Q26.034388 180.43333 25.956263 179.79271Q25.815638 178.52708 25.596888 177.91771Q25.378138 177.91771 25.331263 177.91771Q24.675013 177.91771 24.409388 178.21458Q24.065638 178.62083 24.065638 179.41771Q24.065638 180.15208 24.331263 180.51146Q24.581263 180.87083 25.237513 181.04271L25.096888 182.07396Q24.440638 181.93333 24.034388 181.60521Q23.628138 181.27708 23.409388 180.66771Q23.190638 180.05833 23.190638 179.26146Q23.190638 178.46458 23.378138 177.96458Q23.565638 177.46458 23.846888 177.23021Q24.128138 176.99583 24.565638 176.90208Q24.831263 176.85521 25.534388 176.85521L26.940638 176.85521Q28.409388 176.85521 28.800013 176.79271Q29.190638 176.71458 29.550013 176.51146L29.550013 177.62083Q29.221888 177.77708 28.784388 177.82396ZM26.425013 177.91771Q26.659388 178.49583 26.831263 179.63646Q26.925013 180.29271 27.050013 180.55833Q27.159388 180.82396 27.378138 180.98021Q27.596888 181.12083 27.878138 181.12083Q28.300013 181.12083 28.581263 180.80833Q28.862513 180.48021 28.862513 179.87083Q28.862513 179.26146 28.596888 178.79271Q28.331263 178.30833 27.862513 178.08958Q27.503138 177.91771 26.815638 177.91771L26.425013 177.91771ZM22.175013 174.88646L20.956263 174.88646L20.956263 173.82396L22.175013 173.82396L22.175013 174.88646ZM29.550013 174.88646L23.331263 174.88646L23.331263 173.82396L29.550013 173.82396L29.550013 174.88646ZM29.550013 171.88646L23.331263 171.88646L23.331263 170.94896L24.206263 170.94896Q23.190638 170.26146 23.190638 168.96458Q23.190638 168.40208 23.393763 167.93333Q23.596888 167.44896 23.925013 167.21458Q24.253138 166.98021 24.690638 166.88646Q24.987513 166.83958 25.721888 166.83958L29.550013 166.83958L29.550013 167.88646L25.768763 167.88646Q25.112513 167.88646 24.800013 168.01146Q24.487513 168.13646 24.300013 168.44896Q24.096888 168.76146 24.096888 169.18333Q24.096888 169.85521 24.534388 170.35521Q24.956263 170.83958 26.143763 170.83958L29.550013 170.83958L29.550013 171.88646Z" fill-rule="nonzero"/><path fill="#000000" d="M65.05 300.21564Q65.05 298.6844 65.3625 297.7625Q65.675 296.825 66.28438 296.325Q66.90938 295.825 67.84688 295.825Q68.53438 295.825 69.05 296.10626Q69.58125 296.3875 69.925 296.91876Q70.26875 297.4344 70.45625 298.1844Q70.64375 298.9344 70.64375 300.21564Q70.64375 301.73126 70.33125 302.65314Q70.03438 303.575 69.40938 304.09064Q68.8 304.59064 67.84688 304.59064Q66.6125 304.59064 65.89375 303.7Q65.05 302.6375 65.05 300.21564ZM66.12813 300.21564Q66.12813 302.325 66.62813 303.02814Q67.12813 303.73126 67.84688 303.73126Q68.58125 303.73126 69.06563 303.02814Q69.56563 302.325 69.56563 300.21564Q69.56563 298.09064 69.06563 297.40314Q68.58125 296.7 67.83125 296.7Q67.1125 296.7 66.675 297.3094Q66.12813 298.09064 66.12813 300.21564Z" fill-rule="nonzero"/><path fill="#000000" d="M62.01875 244.81667L60.971874 244.81667L60.971874 238.09792Q60.58125 238.45729 59.95625 238.83229Q59.346874 239.19167 58.8625 239.36354L58.8625 238.34792Q59.7375 237.92604 60.39375 237.34792Q61.065624 236.75417 61.346874 236.19167L62.01875 236.19167L62.01875 244.81667ZM65.05 240.58229Q65.05 239.05104 65.3625 238.12917Q65.675 237.19167 66.28438 236.69167Q66.90938 236.19167 67.84688 236.19167Q68.53438 236.19167 69.05 236.47292Q69.58125 236.75417 69.925 237.28542Q70.26875 237.80104 70.45625 238.55104Q70.64375 239.30104 70.64375 240.58229Q70.64375 242.09792 70.33125 243.01979Q70.03438 243.94167 69.40938 244.45729Q68.8 244.95729 67.84688 244.95729Q66.6125 244.95729 65.89375 244.06667Q65.05 243.00417 65.05 240.58229ZM66.12813 240.58229Q66.12813 242.69167 66.62813 243.39479Q67.12813 244.09792 67.84688 244.09792Q68.58125 244.09792 69.06563 243.39479Q69.56563 242.69167 69.56563 240.58229Q69.56563 238.45729 69.06563 237.76979Q68.58125 237.06667 67.83125 237.06667Q67.1125 237.06667 66.675 237.67604Q66.12813 238.45729 66.12813 240.58229Z" fill-rule="nonzero"/><path fill="#000000" d="M63.596874 184.16771L63.596874 185.18333L57.909374 185.18333Q57.909374 184.80833 58.034374 184.44896Q58.253124 183.87083 58.721874 183.30833Q59.20625 182.74583 60.1125 182.01146Q61.51875 180.85521 62.003124 180.18333Q62.503124 179.51146 62.503124 178.91771Q62.503124 178.29271 62.05 177.87083Q61.596874 177.43333 60.878124 177.43333Q60.1125 177.43333 59.659374 177.88646Q59.20625 178.33958 59.190624 179.15208L58.1125 179.04271Q58.221874 177.82396 58.940624 177.19896Q59.675 176.55833 60.909374 176.55833Q62.14375 176.55833 62.8625 177.24583Q63.58125 177.93333 63.58125 178.94896Q63.58125 179.46458 63.3625 179.96458Q63.159374 180.44896 62.659374 181.01146Q62.175 181.55833 61.05 182.51146Q60.096874 183.30833 59.815624 183.60521Q59.55 183.88646 59.378124 184.16771L63.596874 184.16771ZM65.05 180.94896Q65.05 179.41771 65.3625 178.49583Q65.675 177.55833 66.28438 177.05833Q66.90938 176.55833 67.84688 176.55833Q68.53438 176.55833 69.05 176.83958Q69.58125 177.12083 69.925 177.65208Q70.26875 178.16771 70.45625 178.91771Q70.64375 179.66771 70.64375 180.94896Q70.64375 182.46458 70.33125 183.38646Q70.03438 184.30833 69.40938 184.82396Q68.8 185.32396 67.84688 185.32396Q66.6125 185.32396 65.89375 184.43333Q65.05 183.37083 65.05 180.94896ZM66.12813 180.94896Q66.12813 183.05833 66.62813 183.76146Q67.12813 184.46458 67.84688 184.46458Q68.58125 184.46458 69.06563 183.76146Q69.56563 183.05833 69.56563 180.94896Q69.56563 178.82396 69.06563 178.13646Q68.58125 177.43333 67.83125 177.43333Q67.1125 177.43333 66.675 178.04271Q66.12813 178.82396 66.12813 180.94896Z" fill-rule="nonzero"/><path fill="#000000" d="M58.05 123.28438L59.1125 123.14375Q59.284374 124.03438 59.721874 124.44063Q60.159374 124.83125 60.784374 124.83125Q61.534374 124.83125 62.05 124.31563Q62.565624 123.8 62.565624 123.03438Q62.565624 122.31563 62.08125 121.84688Q61.6125 121.3625 60.878124 121.3625Q60.58125 121.3625 60.128124 121.4875L60.253124 120.55Q60.3625 120.56563 60.425 120.56563Q61.096874 120.56563 61.628124 120.22188Q62.175 119.8625 62.175 119.12813Q62.175 118.55 61.784374 118.175Q61.39375 117.78438 60.76875 117.78438Q60.159374 117.78438 59.7375 118.175Q59.33125 118.56563 59.221874 119.33125L58.159374 119.14375Q58.346874 118.09688 59.034374 117.51875Q59.721874 116.925 60.7375 116.925Q61.440624 116.925 62.034374 117.2375Q62.628124 117.53438 62.940624 118.05Q63.253124 118.56563 63.253124 119.15938Q63.253124 119.70625 62.95625 120.175Q62.659374 120.62813 62.08125 120.89375Q62.83125 121.06563 63.253124 121.62813Q63.675 122.175 63.675 123.01875Q63.675 124.14375 62.846874 124.925Q62.034374 125.70625 60.784374 125.70625Q59.659374 125.70625 58.909374 125.03438Q58.159374 124.34688 58.05 123.28438ZM65.05 121.31563Q65.05 119.78438 65.3625 118.8625Q65.675 117.925 66.28438 117.425Q66.90938 116.925 67.84688 116.925Q68.53438 116.925 69.05 117.20625Q69.58125 117.4875 69.925 118.01875Q70.26875 118.53438 70.45625 119.28438Q70.64375 120.03438 70.64375 121.31563Q70.64375 122.83125 70.33125 123.75313Q70.03438 124.675 69.40938 125.19063Q68.8 125.69063 67.84688 125.69063Q66.6125 125.69063 65.89375 124.8Q65.05 123.7375 65.05 121.31563ZM66.12813 121.31563Q66.12813 123.425 66.62813 124.12813Q67.12813 124.83125 67.84688 124.83125Q68.58125 124.83125 69.06563 124.12813Q69.56563 123.425 69.56563 121.31563Q69.56563 119.19063 69.06563 118.50313Q68.58125 117.8 67.83125 117.8Q67.1125 117.8 66.675 118.40938Q66.12813 119.19063 66.12813 121.31563Z" fill-rule="nonzero"/><path fill="#000000" d="M61.425 65.916664L61.425 63.854164L57.70625 63.854164L57.70625 62.885414L61.628124 57.322914L62.4875 57.322914L62.4875 62.885414L63.64375 62.885414L63.64375 63.854164L62.4875 63.854164L62.4875 65.916664L61.425 65.916664ZM61.425 62.885414L61.425 59.02604L58.7375 62.885414L61.425 62.885414ZM65.05 61.68229Q65.05 60.15104 65.3625 59.229164Q65.675 58.291664 66.28438 57.791664Q66.90938 57.291664 67.84688 57.291664Q68.53438 57.291664 69.05 57.572914Q69.58125 57.854164 69.925 58.385414Q70.26875 58.90104 70.45625 59.65104Q70.64375 60.40104 70.64375 61.68229Q70.64375 63.197914 70.33125 64.11979Q70.03438 65.041664 69.40938 65.55729Q68.8 66.05729 67.84688 66.05729Q66.6125 66.05729 65.89375 65.166664Q65.05 64.104164 65.05 61.68229ZM66.12813 61.68229Q66.12813 63.791664 66.62813 64.49479Q67.12813 65.197914 67.84688 65.197914Q68.58125 65.197914 69.06563 64.49479Q69.56563 63.791664 69.56563 61.68229Q69.56563 59.55729 69.06563 58.86979Q68.58125 58.166664 67.83125 58.166664Q67.1125 58.166664 66.675 58.77604Q66.12813 59.55729 66.12813 61.68229Z" fill-rule="nonzero"/><path fill="#000000" d="M75.01875 317.45L73.97188 317.45L73.97188 310.73126Q73.58125 311.09064 72.95625 311.46564Q72.34688 311.825 71.8625 311.9969L71.8625 310.98126Q72.7375 310.5594 73.39375 309.98126Q74.06563 309.3875 74.34688 308.825L75.01875 308.825L75.01875 317.45ZM78.05 313.21564Q78.05 311.6844 78.3625 310.7625Q78.675 309.825 79.28438 309.325Q79.90938 308.825 80.84688 308.825Q81.53438 308.825 82.05 309.10626Q82.58125 309.3875 82.925 309.91876Q83.26875 310.4344 83.45625 311.1844Q83.64375 311.9344 83.64375 313.21564Q83.64375 314.73126 83.33125 315.65314Q83.03438 316.575 82.40938 317.09064Q81.8 317.59064 80.84688 317.59064Q79.6125 317.59064 78.89375 316.7Q78.05 315.6375 78.05 313.21564ZM79.12813 313.21564Q79.12813 315.325 79.62813 316.02814Q80.12813 316.73126 80.84688 316.73126Q81.58125 316.73126 82.06563 316.02814Q82.56563 315.325 82.56563 313.21564Q82.56563 311.09064 82.06563 310.40314Q81.58125 309.7 80.83125 309.7Q80.1125 309.7 79.675 310.3094Q79.12813 311.09064 79.12813 313.21564Z" fill-rule="nonzero"/><path fill="#000000" d="M197.49374 317.45L196.44687 317.45L196.44687 310.73126Q196.05624 311.09064 195.43124 311.46564Q194.82187 311.825 194.3375 311.9969L194.3375 310.98126Q195.2125 310.5594 195.86874 309.98126Q196.54062 309.3875 196.82187 308.825L197.49374 308.825L197.49374 317.45ZM200.525 313.21564Q200.525 311.6844 200.8375 310.7625Q201.15 309.825 201.75937 309.325Q202.38437 308.825 203.32187 308.825Q204.00937 308.825 204.525 309.10626Q205.05624 309.3875 205.4 309.91876Q205.74374 310.4344 205.93124 311.1844Q206.11874 311.9344 206.11874 313.21564Q206.11874 314.73126 205.80624 315.65314Q205.50937 316.575 204.88437 317.09064Q204.275 317.59064 203.32187 317.59064Q202.0875 317.59064 201.36874 316.7Q200.525 315.6375 200.525 313.21564ZM201.60312 313.21564Q201.60312 315.325 202.10312 316.02814Q202.60312 316.73126 203.32187 316.73126Q204.05624 316.73126 204.54062 316.02814Q205.04062 315.325 205.04062 313.21564Q205.04062 311.09064 204.54062 310.40314Q204.05624 309.7 203.30624 309.7Q202.5875 309.7 202.15 310.3094Q201.60312 311.09064 201.60312 313.21564ZM207.525 313.21564Q207.525 311.6844 207.8375 310.7625Q208.15 309.825 208.75937 309.325Q209.38437 308.825 210.32187 308.825Q211.00937 308.825 211.525 309.10626Q212.05624 309.3875 212.4 309.91876Q212.74374 310.4344 212.93124 311.1844Q213.11874 311.9344 213.11874 313.21564Q213.11874 314.73126 212.80624 315.65314Q212.50937 316.575 211.88437 317.09064Q211.275 317.59064 210.32187 317.59064Q209.0875 317.59064 208.36874 316.7Q207.525 315.6375 207.525 313.21564ZM208.60312 313.21564Q208.60312 315.325 209.10312 316.02814Q209.60312 316.73126 210.32187 316.73126Q211.05624 316.73126 211.54062 316.02814Q212.04062 315.325 212.04062 313.21564Q212.04062 311.09064 211.54062 310.40314Q211.05624 309.7 210.30624 309.7Q209.5875 309.7 209.15 310.3094Q208.60312 311.09064 208.60312 313.21564Z" fill-rule="nonzero"/><path fill="#000000" d="M319.96875 317.45L318.92188 317.45L318.92188 310.73126Q318.53125 311.09064 317.90625 311.46564Q317.29688 311.825 316.8125 311.9969L316.8125 310.98126Q317.6875 310.5594 318.34375 309.98126Q319.01562 309.3875 319.29688 308.825L319.96875 308.825L319.96875 317.45ZM323.0 313.21564Q323.0 311.6844 323.3125 310.7625Q323.625 309.825 324.23438 309.325Q324.85938 308.825 325.79688 308.825Q326.48438 308.825 327.0 309.10626Q327.53125 309.3875 327.875 309.91876Q328.21875 310.4344 328.40625 311.1844Q328.59375 311.9344 328.59375 313.21564Q328.59375 314.73126 328.28125 315.65314Q327.98438 316.575 327.35938 317.09064Q326.75 317.59064 325.79688 317.59064Q324.5625 317.59064 323.84375 316.7Q323.0 315.6375 323.0 313.21564ZM324.07812 313.21564Q324.07812 315.325 324.57812 316.02814Q325.07812 316.73126 325.79688 316.73126Q326.53125 316.73126 327.01562 316.02814Q327.51562 315.325 327.51562 313.21564Q327.51562 311.09064 327.01562 310.40314Q326.53125 309.7 325.78125 309.7Q325.0625 309.7 324.625 310.3094Q324.07812 311.09064 324.07812 313.21564ZM330.0 313.21564Q330.0 311.6844 330.3125 310.7625Q330.625 309.825 331.23438 309.325Q331.85938 308.825 332.79688 308.825Q333.48438 308.825 334.0 309.10626Q334.53125 309.3875 334.875 309.91876Q335.21875 310.4344 335.40625 311.1844Q335.59375 311.9344 335.59375 313.21564Q335.59375 314.73126 335.28125 315.65314Q334.98438 316.575 334.35938 317.09064Q333.75 317.59064 332.79688 317.59064Q331.5625 317.59064 330.84375 316.7Q330.0 315.6375 330.0 313.21564ZM331.07812 313.21564Q331.07812 315.325 331.57812 316.02814Q332.07812 316.73126 332.79688 316.73126Q333.53125 316.73126 334.01562 316.02814Q334.51562 315.325 334.51562 313.21564Q334.51562 311.09064 334.01562 310.40314Q333.53125 309.7 332.78125 309.7Q332.0625 309.7 331.625 310.3094Q331.07812 311.09064 331.07812 313.21564ZM337.0 313.21564Q337.0 311.6844 337.3125 310.7625Q337.625 309.825 338.23438 309.325Q338.85938 308.825 339.79688 308.825Q340.48438 308.825 341.0 309.10626Q341.53125 309.3875 341.875 309.91876Q342.21875 310.4344 342.40625 311.1844Q342.59375 311.9344 342.59375 313.21564Q342.59375 314.73126 342.28125 315.65314Q341.98438 316.575 341.35938 317.09064Q340.75 317.59064 339.79688 317.59064Q338.5625 317.59064 337.84375 316.7Q337.0 315.6375 337.0 313.21564ZM338.07812 313.21564Q338.07812 315.325 338.57812 316.02814Q339.07812 316.73126 339.79688 316.73126Q340.53125 316.73126 341.01562 316.02814Q341.51562 315.325 341.51562 313.21564Q341.51562 311.09064 341.01562 310.40314Q340.53125 309.7 339.78125 309.7Q339.0625 309.7 338.625 310.3094Q338.07812 311.09064 338.07812 313.21564Z" fill-rule="nonzero"/><path fill="#000000" d="M442.44376 317.45L441.39688 317.45L441.39688 310.73126Q441.00626 311.09064 440.38126 311.46564Q439.77188 311.825 439.2875 311.9969L439.2875 310.98126Q440.1625 310.5594 440.81876 309.98126Q441.49063 309.3875 441.77188 308.825L442.44376 308.825L442.44376 317.45ZM445.475 313.21564Q445.475 311.6844 445.7875 310.7625Q446.1 309.825 446.70938 309.325Q447.33438 308.825 448.27188 308.825Q448.95938 308.825 449.475 309.10626Q450.00626 309.3875 450.35 309.91876Q450.69376 310.4344 450.88126 311.1844Q451.06876 311.9344 451.06876 313.21564Q451.06876 314.73126 450.75626 315.65314Q450.45938 316.575 449.83438 317.09064Q449.225 317.59064 448.27188 317.59064Q447.0375 317.59064 446.31876 316.7Q445.475 315.6375 445.475 313.21564ZM446.55313 313.21564Q446.55313 315.325 447.05313 316.02814Q447.55313 316.73126 448.27188 316.73126Q449.00626 316.73126 449.49063 316.02814Q449.99063 315.325 449.99063 313.21564Q449.99063 311.09064 449.49063 310.40314Q449.00626 309.7 448.25626 309.7Q447.5375 309.7 447.1 310.3094Q446.55313 311.09064 446.55313 313.21564ZM452.475 313.21564Q452.475 311.6844 452.7875 310.7625Q453.1 309.825 453.70938 309.325Q454.33438 308.825 455.27188 308.825Q455.95938 308.825 456.475 309.10626Q457.00626 309.3875 457.35 309.91876Q457.69376 310.4344 457.88126 311.1844Q458.06876 311.9344 458.06876 313.21564Q458.06876 314.73126 457.75626 315.65314Q457.45938 316.575 456.83438 317.09064Q456.225 317.59064 455.27188 317.59064Q454.0375 317.59064 453.31876 316.7Q452.475 315.6375 452.475 313.21564ZM453.55313 313.21564Q453.55313 315.325 454.05313 316.02814Q454.55313 316.73126 455.27188 316.73126Q456.00626 316.73126 456.49063 316.02814Q456.99063 315.325 456.99063 313.21564Q456.99063 311.09064 456.49063 310.40314Q456.00626 309.7 455.25626 309.7Q454.5375 309.7 454.1 310.3094Q453.55313 311.09064 453.55313 313.21564ZM459.475 313.21564Q459.475 311.6844 459.7875 310.7625Q460.1 309.825 460.70938 309.325Q461.33438 308.825 462.27188 308.825Q462.95938 308.825 463.475 309.10626Q464.00626 309.3875 464.35 309.91876Q464.69376 310.4344 464.88126 311.1844Q465.06876 311.9344 465.06876 313.21564Q465.06876 314.73126 464.75626 315.65314Q464.45938 316.575 463.83438 317.09064Q463.225 317.59064 462.27188 317.59064Q461.0375 317.59064 460.31876 316.7Q459.475 315.6375 459.475 313.21564ZM460.55313 313.21564Q460.55313 315.325 461.05313 316.02814Q461.55313 316.73126 462.27188 316.73126Q463.00626 316.73126 463.49063 316.02814Q463.99063 315.325 463.99063 313.21564Q463.99063 311.09064 463.49063 310.40314Q463.00626 309.7 462.25626 309.7Q461.5375 309.7 461.1 310.3094Q460.55313 311.09064 460.55313 313.21564ZM466.475 313.21564Q466.475 311.6844 466.7875 310.7625Q467.1 309.825 467.70938 309.325Q468.33438 308.825 469.27188 308.825Q469.95938 308.825 470.475 309.10626Q471.00626 309.3875 471.35 309.91876Q471.69376 310.4344 471.88126 311.1844Q472.06876 311.9344 472.06876 313.21564Q472.06876 314.73126 471.75626 315.65314Q471.45938 316.575 470.83438 317.09064Q470.225 317.59064 469.27188 317.59064Q468.0375 317.59064 467.31876 316.7Q466.475 315.6375 466.475 313.21564ZM467.55313 313.21564Q467.55313 315.325 468.05313 316.02814Q468.55313 316.73126 469.27188 316.73126Q470.00626 316.73126 470.49063 316.02814Q470.99063 315.325 470.99063 313.21564Q470.99063 311.09064 470.49063 310.40314Q470.00626 309.7 469.25626 309.7Q468.5375 309.7 468.1 310.3094Q467.55313 311.09064 467.55313 313.21564Z" fill-rule="nonzero"/><path fill="#757575" d="M26.596874 37.55L26.596874 36.2375Q25.6125 37.784374 23.690624 37.784374Q22.45625 37.784374 21.409374 37.096874Q20.378124 36.409374 19.8 35.190624Q19.2375 33.971874 19.2375 32.378124Q19.2375 30.815624 19.753124 29.55Q20.26875 28.284374 21.3 27.6125Q22.346874 26.940624 23.6125 26.940624Q24.55 26.940624 25.284374 27.346874Q26.01875 27.7375 26.4875 28.3625L26.4875 23.2375L28.221874 23.2375L28.221874 37.55L26.596874 37.55ZM21.034374 32.378124Q21.034374 34.3625 21.878124 35.346874Q22.721874 36.33125 23.8625 36.33125Q25.01875 36.33125 25.815624 35.39375Q26.628124 34.45625 26.628124 32.51875Q26.628124 30.39375 25.8 29.39375Q24.9875 28.39375 23.784374 28.39375Q22.6125 28.39375 21.815624 29.3625Q21.034374 30.315624 21.034374 32.378124ZM31.01875 37.55L31.01875 23.2375L36.39375 23.2375Q38.034374 23.2375 39.01875 23.675Q40.003124 24.096874 40.565624 25.003124Q41.128124 25.909374 41.128124 26.89375Q41.128124 27.815624 40.628124 28.628124Q40.14375 29.440624 39.128124 29.925Q40.425 30.315624 41.128124 31.2375Q41.83125 32.14375 41.83125 33.39375Q41.83125 34.409374 41.39375 35.26875Q40.971874 36.128124 40.346874 36.596874Q39.721874 37.065624 38.784374 37.315624Q37.846874 37.55 36.471874 37.55L31.01875 37.55ZM32.909374 29.253124L36.003124 29.253124Q37.26875 29.253124 37.815624 29.08125Q38.534374 28.8625 38.89375 28.378124Q39.26875 27.878124 39.26875 27.1125Q39.26875 26.409374 38.925 25.8625Q38.58125 25.315624 37.940624 25.128124Q37.315624 24.925 35.76875 24.925L32.909374 24.925L32.909374 29.253124ZM32.909374 35.8625L36.471874 35.8625Q37.39375 35.8625 37.76875 35.784374Q38.425 35.675 38.8625 35.409374Q39.3 35.128124 39.58125 34.6125Q39.8625 34.08125 39.8625 33.39375Q39.8625 32.596874 39.45625 32.003124Q39.05 31.409374 38.315624 31.175Q37.58125 30.940624 36.221874 30.940624L32.909374 30.940624L32.909374 35.8625ZM56.8 31.940624L56.8 30.253124L62.8625 30.2375L62.8625 35.55Q61.45625 36.675 59.971874 37.2375Q58.4875 37.8 56.925 37.8Q54.815624 37.8 53.096874 36.89375Q51.378124 35.9875 50.4875 34.284374Q49.6125 32.565624 49.6125 30.45625Q49.6125 28.3625 50.4875 26.565624Q51.3625 24.753124 53.003124 23.878124Q54.64375 22.9875 56.784374 22.9875Q58.33125 22.9875 59.58125 23.4875Q60.846874 23.9875 61.55 24.89375Q62.26875 25.784374 62.64375 27.2375L60.940624 27.70625Q60.6125 26.6125 60.128124 25.9875Q59.659374 25.3625 58.76875 24.9875Q57.878124 24.6125 56.8 24.6125Q55.4875 24.6125 54.534374 25.003124Q53.596874 25.39375 53.01875 26.05Q52.440624 26.690624 52.1125 27.45625Q51.565624 28.784374 51.565624 30.346874Q51.565624 32.253124 52.221874 33.55Q52.89375 34.83125 54.14375 35.45625Q55.409374 36.08125 56.815624 36.08125Q58.05 36.08125 59.221874 35.6125Q60.39375 35.14375 61.003124 34.596874L61.003124 31.940624L56.8 31.940624ZM72.64375 36.26875Q71.65938 37.096874 70.75313 37.440624Q69.84688 37.784374 68.81563 37.784374Q67.1125 37.784374 66.19063 36.95625Q65.26875 36.1125 65.26875 34.815624Q65.26875 34.05 65.6125 33.425Q65.97188 32.8 66.53438 32.425Q67.09688 32.034374 67.8 31.83125Q68.31563 31.70625 69.3625 31.565624Q71.4875 31.315624 72.4875 30.971874Q72.50313 30.6125 72.50313 30.503124Q72.50313 29.440624 72.00313 28.9875Q71.33125 28.39375 70.00313 28.39375Q68.75313 28.39375 68.15938 28.83125Q67.58125 29.26875 67.3 30.378124L65.58125 30.14375Q65.81563 29.034374 66.34688 28.3625Q66.87813 27.675 67.89375 27.315624Q68.90938 26.940624 70.25313 26.940624Q71.58125 26.940624 72.40938 27.253124Q73.2375 27.565624 73.62813 28.05Q74.01875 28.51875 74.175 29.2375Q74.26875 29.690624 74.26875 30.8625L74.26875 33.20625Q74.26875 35.659374 74.37813 36.315624Q74.4875 36.95625 74.83125 37.55L72.9875 37.55Q72.72188 37.003124 72.64375 36.26875ZM72.4875 32.346874Q71.53438 32.7375 69.6125 33.003124Q68.53438 33.159374 68.08125 33.3625Q67.64375 33.55 67.39375 33.925Q67.14375 34.3 67.14375 34.76875Q67.14375 35.471874 67.675 35.940624Q68.20625 36.409374 69.2375 36.409374Q70.25313 36.409374 71.03438 35.971874Q71.83125 35.51875 72.20625 34.753124Q72.4875 34.14375 72.4875 32.9875L72.4875 32.346874ZM76.87813 25.253124L76.87813 23.2375L78.64375 23.2375L78.64375 25.253124L76.87813 25.253124ZM76.87813 37.55L76.87813 27.175L78.64375 27.175L78.64375 37.55L76.87813 37.55ZM80.8625 37.55L80.8625 27.175L82.45625 27.175L82.45625 28.659374Q83.59688 26.940624 85.75313 26.940624Q86.69063 26.940624 87.47188 27.284374Q88.26875 27.6125 88.65938 28.159374Q89.05 28.70625 89.20625 29.45625Q89.3 29.95625 89.3 31.175L89.3 37.55L87.53438 37.55L87.53438 31.2375Q87.53438 30.159374 87.33125 29.628124Q87.12813 29.096874 86.59688 28.784374Q86.08125 28.471874 85.37813 28.471874Q84.25313 28.471874 83.44063 29.190624Q82.62813 29.89375 82.62813 31.878124L82.62813 37.55L80.8625 37.55ZM99.75313 37.55L95.8 27.175L97.65938 27.175L99.89375 33.39375Q100.25313 34.39375 100.55 35.471874Q100.78438 34.659374 101.20625 33.503124L103.50313 27.175L105.31563 27.175L101.39375 37.55L99.75313 37.55ZM105.15938 34.45625L106.90938 34.175Q107.05 35.221874 107.72188 35.784374Q108.39375 36.33125 109.59688 36.33125Q110.8 36.33125 111.37813 35.846874Q111.97188 35.346874 111.97188 34.690624Q111.97188 34.096874 111.45625 33.753124Q111.09688 33.51875 109.65938 33.159374Q107.72188 32.659374 106.97188 32.315624Q106.2375 31.95625 105.84688 31.33125Q105.45625 30.690624 105.45625 29.925Q105.45625 29.2375 105.76875 28.64375Q106.09688 28.05 106.64375 27.659374Q107.05 27.3625 107.75313 27.159374Q108.47188 26.940624 109.28438 26.940624Q110.50313 26.940624 111.425 27.3Q112.34688 27.64375 112.78438 28.253124Q113.22188 28.846874 113.39375 29.846874L111.675 30.08125Q111.55 29.284374 110.9875 28.846874Q110.425 28.39375 109.40938 28.39375Q108.19063 28.39375 107.675 28.8Q107.15938 29.190624 107.15938 29.721874Q107.15938 30.065624 107.37813 30.346874Q107.58125 30.628124 108.05 30.815624Q108.31563 30.909374 109.59688 31.253124Q111.47188 31.753124 112.20625 32.08125Q112.94063 32.39375 113.3625 33.003124Q113.78438 33.596874 113.78438 34.503124Q113.78438 35.378124 113.26875 36.159374Q112.75313 36.940624 111.78438 37.3625Q110.81563 37.784374 109.59688 37.784374Q107.58125 37.784374 106.51875 36.940624Q105.45625 36.096874 105.15938 34.45625ZM116.3625 37.55L116.3625 35.55L118.3625 35.55L118.3625 37.55L116.3625 37.55ZM128.19063 37.55L128.19063 23.2375L137.84688 23.2375L137.84688 24.925L130.08125 24.925L130.08125 29.3625L136.8 29.3625L136.8 31.05L130.08125 31.05L130.08125 37.55L128.19063 37.55ZM139.84688 37.55L139.84688 27.175L141.425 27.175L141.425 28.753124Q142.03438 27.64375 142.55 27.3Q143.06563 26.940624 143.675 26.940624Q144.56563 26.940624 145.4875 27.503124L144.87813 29.14375Q144.2375 28.753124 143.59688 28.753124Q143.01875 28.753124 142.55 29.1125Q142.09688 29.45625 141.89375 30.065624Q141.6125 31.003124 141.6125 32.1125L141.6125 37.55L139.84688 37.55ZM153.97188 34.20625L155.78438 34.440624Q155.3625 36.01875 154.19063 36.909374Q153.03438 37.784374 151.22188 37.784374Q148.95625 37.784374 147.6125 36.39375Q146.28438 34.9875 146.28438 32.45625Q146.28438 29.83125 147.62813 28.39375Q148.97188 26.940624 151.12813 26.940624Q153.20625 26.940624 154.51875 28.3625Q155.84688 29.76875 155.84688 32.346874Q155.84688 32.503124 155.83125 32.815624L148.09688 32.815624Q148.19063 34.51875 149.06563 35.425Q149.94063 36.33125 151.2375 36.33125Q152.20625 36.33125 152.87813 35.83125Q153.56563 35.315624 153.97188 34.20625ZM148.19063 31.3625L153.9875 31.3625Q153.87813 30.065624 153.33125 29.409374Q152.4875 28.39375 151.14375 28.39375Q149.94063 28.39375 149.1125 29.20625Q148.28438 30.003124 148.19063 31.3625ZM164.4875 41.51875L164.4875 36.440624Q164.06563 37.01875 163.33125 37.409374Q162.59688 37.784374 161.76875 37.784374Q159.925 37.784374 158.58125 36.315624Q157.25313 34.83125 157.25313 32.26875Q157.25313 30.70625 157.78438 29.471874Q158.33125 28.221874 159.3625 27.58125Q160.39375 26.940624 161.62813 26.940624Q163.55 26.940624 164.65938 28.565624L164.65938 27.175L166.2375 27.175L166.2375 41.51875L164.4875 41.51875ZM159.06563 32.33125Q159.06563 34.33125 159.89375 35.33125Q160.7375 36.33125 161.90938 36.33125Q163.03438 36.33125 163.84688 35.39375Q164.65938 34.440624 164.65938 32.4875Q164.65938 30.425 163.8 29.378124Q162.94063 28.33125 161.8 28.33125Q160.65938 28.33125 159.8625 29.3Q159.06563 30.26875 159.06563 32.33125ZM175.65938 37.55L175.65938 36.01875Q174.45625 37.784374 172.37813 37.784374Q171.45625 37.784374 170.65938 37.440624Q169.8625 37.08125 169.47188 36.55Q169.09688 36.01875 168.94063 35.2375Q168.83125 34.721874 168.83125 33.596874L168.83125 27.175L170.58125 27.175L170.58125 32.925Q170.58125 34.3 170.69063 34.784374Q170.8625 35.471874 171.39375 35.878124Q171.94063 36.26875 172.72188 36.26875Q173.51875 36.26875 174.20625 35.8625Q174.90938 35.45625 175.19063 34.76875Q175.4875 34.065624 175.4875 32.7375L175.4875 27.175L177.2375 27.175L177.2375 37.55L175.65938 37.55ZM185.97188 34.20625L187.78438 34.440624Q187.3625 36.01875 186.19063 36.909374Q185.03438 37.784374 183.22188 37.784374Q180.95625 37.784374 179.6125 36.39375Q178.28438 34.9875 178.28438 32.45625Q178.28438 29.83125 179.62813 28.39375Q180.97188 26.940624 183.12813 26.940624Q185.20625 26.940624 186.51875 28.3625Q187.84688 29.76875 187.84688 32.346874Q187.84688 32.503124 187.83125 32.815624L180.09688 32.815624Q180.19063 34.51875 181.06563 35.425Q181.94063 36.33125 183.2375 36.33125Q184.20625 36.33125 184.87813 35.83125Q185.56563 35.315624 185.97188 34.20625ZM180.19063 31.3625L185.9875 31.3625Q185.87813 30.065624 185.33125 29.409374Q184.4875 28.39375 183.14375 28.39375Q181.94063 28.39375 181.1125 29.20625Q180.28438 30.003124 180.19063 31.3625ZM189.8625 37.55L189.8625 27.175L191.45625 27.175L191.45625 28.659374Q192.59688 26.940624 194.75313 26.940624Q195.69063 26.940624 196.47188 27.284374Q197.26875 27.6125 197.65938 28.159374Q198.05 28.70625 198.20625 29.45625Q198.3 29.95625 198.3 31.175L198.3 37.55L196.53438 37.55L196.53438 31.2375Q196.53438 30.159374 196.33125 29.628124Q196.12813 29.096874 195.59688 28.784374Q195.08125 28.471874 194.37813 28.471874Q193.25313 28.471874 192.44063 29.190624Q191.62813 29.89375 191.62813 31.878124L191.62813 37.55L189.8625 37.55ZM206.64375 33.753124L208.3625 33.971874Q208.08125 35.76875 206.90938 36.784374Q205.75313 37.784374 204.05 37.784374Q201.925 37.784374 200.62813 36.39375Q199.33125 35.003124 199.33125 32.409374Q199.33125 30.721874 199.87813 29.471874Q200.44063 28.20625 201.58125 27.58125Q202.72188 26.940624 204.06563 26.940624Q205.75313 26.940624 206.81563 27.8Q207.89375 28.659374 208.20625 30.221874L206.4875 30.4875Q206.25313 29.440624 205.62813 28.925Q205.00313 28.39375 204.12813 28.39375Q202.8 28.39375 201.97188 29.346874Q201.14375 30.3 201.14375 32.346874Q201.14375 34.440624 201.94063 35.39375Q202.7375 36.33125 204.03438 36.33125Q205.06563 36.33125 205.75313 35.70625Q206.45625 35.065624 206.64375 33.753124ZM209.78438 41.55L209.59688 39.89375Q210.175 40.05 210.59688 40.05Q211.19063 40.05 211.53438 39.846874Q211.89375 39.659374 212.1125 39.315624Q212.28438 39.05 212.65938 38.003124Q212.70625 37.846874 212.81563 37.565624L208.87813 27.175L210.76875 27.175L212.925 33.190624Q213.34688 34.33125 213.675 35.58125Q213.9875 34.378124 214.39375 33.221874L216.6125 27.175L218.37813 27.175L214.425 37.721874Q213.8 39.440624 213.44063 40.08125Q212.97188 40.95625 212.3625 41.346874Q211.76875 41.753124 210.925 41.753124Q210.40938 41.753124 209.78438 41.55ZM229.22188 41.753124Q227.76875 39.925 226.76875 37.471874Q225.76875 35.003124 225.76875 32.3625Q225.76875 30.034374 226.51875 27.909374Q227.39375 25.440624 229.22188 22.9875L230.4875 22.9875Q229.3 25.01875 228.925 25.89375Q228.33125 27.2375 227.9875 28.70625Q227.56563 30.534374 227.56563 32.378124Q227.56563 37.065624 230.4875 41.753124L229.22188 41.753124ZM233.15938 37.55L233.15938 23.2375L235.05 23.2375L235.05 29.1125L242.4875 29.1125L242.4875 23.2375L244.37813 23.2375L244.37813 37.55L242.4875 37.55L242.4875 30.8L235.05 30.8L235.05 37.55L233.15938 37.55ZM244.94063 37.55L244.94063 36.128124L251.55 28.55Q250.425 28.596874 249.56563 28.596874L245.33125 28.596874L245.33125 27.175L253.81563 27.175L253.81563 28.346874L248.19063 34.925L247.1125 36.128124Q248.28438 36.034374 249.33125 36.034374L254.12813 36.034374L254.12813 37.55L244.94063 37.55ZM256.01874 41.753124L254.76875 41.753124Q257.675 37.065624 257.675 32.378124Q257.675 30.534374 257.26874 28.7375Q256.925 27.26875 256.33124 25.925Q255.95625 25.034374 254.76875 22.9875L256.01874 22.9875Q257.8625 25.440624 258.7375 27.909374Q259.4875 30.034374 259.4875 32.3625Q259.4875 35.003124 258.47186 37.471874Q257.47186 39.925 256.01874 41.753124Z" fill-rule="nonzero"/></svg>